<?xml version="1.0" standalone="no"?>
<!DOCTYPE svg PUBLIC "-//W3C//DTD SVG 20010904//EN"
 "http://www.w3.org/TR/2001/REC-SVG-20010904/DTD/svg10.dtd">
<svg version="1.0" xmlns="http://www.w3.org/2000/svg"
 width="900.000000pt" height="1380.000000pt" viewBox="0 0 900.000000 1380.000000"
 preserveAspectRatio="xMidYMid meet">
<metadata>
Created by potrace 1.10, written by Peter Selinger 2001-2011
</metadata>
<g transform="translate(0.000000,1380.000000) scale(0.100000,-0.100000)"
fill="rgba(255, 106, 31, 0.7)" stroke="none">
<path d="M4413 12741 c-149 -82 -419 -351 -562 -561 -13 -19 -29 -39 -36 -45
-10 -8 -129 -181 -160 -233 -5 -9 -22 -33 -37 -53 -16 -20 -28 -39 -28 -41 0
-3 -20 -36 -45 -74 -25 -37 -45 -71 -45 -76 0 -4 -13 -27 -30 -51 -16 -25 -30
-50 -30 -56 0 -6 -4 -11 -9 -11 -5 0 -14 -12 -20 -27 -6 -16 -25 -50 -42 -78
-16 -27 -37 -63 -45 -80 -9 -16 -37 -70 -64 -120 -26 -49 -71 -137 -100 -195
-29 -58 -56 -112 -61 -120 -5 -8 -12 -22 -15 -30 -3 -8 -10 -22 -15 -30 -5 -8
-12 -22 -15 -30 -10 -24 -96 -203 -105 -220 -5 -8 -12 -22 -15 -30 -3 -8 -19
-42 -35 -75 -16 -33 -29 -68 -29 -76 0 -9 -7 -22 -15 -29 -8 -7 -15 -20 -15
-29 0 -9 -7 -25 -15 -35 -8 -11 -15 -27 -15 -37 0 -9 -6 -22 -14 -28 -8 -6
-16 -22 -19 -34 -10 -40 -33 -97 -45 -109 -7 -7 -12 -20 -12 -29 0 -10 -6 -30
-14 -46 -18 -36 -39 -86 -61 -143 -21 -54 -43 -106 -62 -142 -7 -14 -13 -34
-13 -45 0 -10 -7 -27 -15 -37 -8 -11 -15 -27 -15 -37 0 -9 -7 -22 -15 -29 -8
-7 -15 -23 -15 -35 0 -13 -8 -38 -17 -57 -9 -18 -22 -45 -30 -60 -7 -14 -13
-34 -13 -45 0 -10 -7 -27 -15 -37 -8 -11 -15 -29 -15 -40 0 -12 -7 -30 -15
-40 -8 -11 -15 -29 -15 -40 0 -12 -7 -30 -15 -40 -8 -11 -15 -32 -15 -47 0
-14 -7 -32 -15 -39 -8 -7 -15 -24 -15 -39 0 -14 -7 -35 -15 -45 -8 -11 -15
-31 -15 -45 0 -14 -7 -35 -15 -45 -8 -11 -15 -31 -15 -45 0 -14 -7 -35 -15
-45 -8 -11 -15 -33 -15 -49 0 -17 -10 -44 -23 -61 -22 -29 -47 -78 -85 -166
-8 -19 -21 -47 -29 -62 -7 -14 -13 -35 -13 -46 0 -11 -6 -33 -14 -49 -18 -37
-36 -90 -45 -133 -4 -19 -13 -45 -19 -57 -7 -12 -12 -33 -12 -47 0 -14 -4 -27
-9 -31 -6 -3 -13 -27 -16 -53 -3 -26 -11 -55 -16 -66 -6 -10 -13 -44 -16 -75
-3 -31 -12 -65 -19 -76 -8 -11 -14 -45 -14 -75 0 -31 -5 -61 -11 -67 -7 -7
-15 -55 -20 -107 -4 -52 -12 -103 -17 -113 -5 -10 -13 -90 -16 -178 -4 -87
-12 -167 -17 -176 -13 -24 -12 -481 1 -515 6 -15 13 -113 17 -218 3 -105 10
-199 15 -208 5 -10 11 -62 15 -115 3 -54 12 -113 19 -132 8 -18 14 -57 14 -85
1 -28 7 -62 15 -76 8 -14 14 -45 15 -70 0 -25 7 -58 15 -74 8 -15 15 -42 15
-58 0 -16 5 -39 12 -51 6 -12 15 -40 19 -62 4 -22 12 -55 18 -72 25 -73 33
-99 41 -128 13 -48 31 -98 46 -128 8 -16 14 -35 14 -44 0 -8 6 -27 13 -41 13
-25 23 -47 60 -135 13 -29 161 -328 196 -395 8 -15 18 -28 23 -30 4 -2 8 -9 8
-16 0 -7 13 -32 30 -54 17 -23 30 -45 30 -48 0 -3 13 -23 30 -44 16 -21 30
-41 30 -45 0 -5 45 -69 78 -110 4 -5 36 -48 71 -94 95 -125 329 -354 466 -457
142 -106 257 -184 272 -184 6 0 13 -4 15 -8 2 -5 53 -32 113 -61 61 -30 122
-60 137 -67 14 -8 35 -14 46 -14 11 0 25 -7 32 -15 7 -8 24 -15 39 -15 14 0
35 -7 45 -15 11 -8 34 -15 50 -15 17 -1 42 -7 56 -15 14 -8 42 -14 63 -15 21
0 48 -5 60 -12 12 -6 58 -15 102 -19 307 -29 335 -31 457 -20 222 20 283 28
311 40 16 6 43 11 60 11 18 1 43 7 57 15 14 8 41 14 61 15 20 0 42 7 49 15 7
8 21 15 32 15 11 0 36 7 56 16 21 8 51 21 67 28 127 54 346 171 353 188 2 4 8
8 12 8 8 0 188 125 200 139 3 3 28 24 55 46 142 113 332 318 468 505 43 58 81
110 85 115 5 6 22 32 38 59 16 26 37 60 46 74 10 15 22 36 28 47 6 11 24 43
40 70 17 28 55 102 86 165 31 63 60 122 65 130 5 8 12 22 15 30 3 8 12 27 20
42 8 14 14 35 14 46 0 11 7 25 15 32 8 7 15 22 15 34 0 11 7 30 15 40 8 11 15
27 15 37 0 9 7 30 15 45 8 16 15 38 15 49 0 11 7 29 15 39 8 11 15 30 15 42 0
12 7 35 15 50 8 16 15 36 15 45 0 9 7 33 15 52 8 20 15 49 15 64 0 15 7 37 15
47 8 11 15 36 15 57 0 20 7 50 15 65 8 16 15 48 15 70 0 23 7 58 15 77 8 20
15 58 15 84 0 26 5 66 11 88 7 22 15 81 20 130 5 50 12 108 15 130 21 143 41
848 25 880 -6 11 -12 79 -14 150 -3 72 -7 144 -11 160 -4 17 -11 68 -15 115
-5 47 -14 98 -20 113 -6 16 -11 48 -11 71 0 24 -7 60 -15 79 -8 20 -15 53 -15
74 -1 21 -7 49 -15 63 -8 14 -14 39 -15 57 0 18 -6 47 -14 65 -13 31 -20 55
-47 163 -6 22 -14 44 -20 50 -5 5 -9 21 -9 35 0 14 -7 35 -15 46 -8 10 -15 27
-15 36 0 17 -19 67 -46 121 -8 16 -14 37 -14 47 0 9 -7 23 -15 30 -8 7 -15 21
-15 31 0 10 -5 21 -11 24 -5 4 -15 17 -20 28 -23 53 -142 272 -179 332 -10 17
-46 84 -79 150 -34 66 -74 143 -91 170 -16 28 -35 62 -41 78 -6 15 -14 27 -19
27 -4 0 -10 8 -14 18 -3 9 -15 31 -26 47 -11 17 -24 39 -29 51 -5 11 -28 51
-50 88 -23 36 -41 70 -41 75 0 5 -7 14 -15 21 -8 7 -15 18 -15 26 0 7 -13 33
-30 57 -16 25 -30 49 -30 54 0 6 -13 29 -30 51 -16 23 -30 44 -30 47 0 3 -18
30 -41 60 -39 52 -131 125 -157 125 -7 0 -23 7 -37 16 -29 19 -189 16 -245 -5
-61 -23 -94 -37 -134 -57 -58 -28 -173 -144 -271 -274 -64 -84 -247 -268 -305
-305 -63 -42 -83 -53 -100 -60 -8 -4 -28 -12 -45 -20 -16 -7 -43 -16 -60 -20
-16 -3 -50 -10 -74 -15 -41 -9 -70 -6 -184 17 -41 8 -134 59 -186 101 -68 55
-133 143 -181 242 -42 88 -49 105 -56 140 -3 19 -10 40 -14 45 -4 6 -10 33
-13 60 -3 28 -10 92 -16 142 -7 63 -7 126 0 195 5 57 13 144 18 193 5 50 14
103 20 118 6 16 11 47 11 71 0 23 4 46 9 52 5 5 14 38 20 74 15 94 31 171 43
205 6 17 13 48 15 70 2 22 11 54 19 72 8 17 14 42 14 56 0 13 7 41 15 60 8 20
15 47 15 61 0 13 7 37 15 52 8 16 15 43 15 59 0 17 7 39 15 49 8 11 15 28 15
39 0 21 24 101 46 155 8 18 14 43 14 55 0 12 7 31 15 41 8 11 15 29 15 41 0
12 7 30 15 41 8 10 15 30 15 44 0 14 7 34 15 44 8 11 15 27 15 36 0 9 14 43
30 75 17 32 30 67 30 76 0 10 4 20 9 23 13 9 51 89 51 109 0 9 4 17 9 17 5 0
12 10 16 23 7 23 29 82 51 134 19 43 22 166 5 187 -23 28 -126 21 -188 -13z"/>
<path d="M4445 2434 c-16 -7 -41 -13 -55 -14 -31 0 -139 -53 -202 -98 -80 -59
-147 -167 -148 -239 0 -23 -5 -54 -12 -68 -9 -21 -9 -31 0 -46 7 -10 12 -37
12 -60 0 -61 77 -208 144 -274 35 -35 103 -85 115 -85 6 0 11 -4 11 -9 0 -38
270 -68 332 -37 17 9 37 16 44 16 7 0 48 26 91 59 75 55 139 127 163 182 5 13
14 31 19 39 38 68 41 80 41 192 0 81 -4 121 -15 142 -8 15 -15 34 -15 41 0 7
-13 28 -30 46 -16 19 -30 37 -30 41 0 8 -107 91 -130 101 -8 4 -22 11 -30 16
-54 30 -82 41 -112 41 -18 0 -43 7 -55 15 -18 13 -22 13 -33 0 -16 -19 -49
-19 -64 -1 -9 11 -16 11 -41 0z"/>
</g>
</svg>
